<svg width="156" height="154" viewBox="0 0 156 154" fill="none" xmlns="http://www.w3.org/2000/svg">
<path d="M75.4207 63.1075H60.0287V35.4018H46.1758V21.5489H104.666V35.4018H89.2736V50.7939H75.4207V63.1075Z" fill="#00FF99"/>
<path d="M83.1168 13.8529H70.8031V0H83.1168V13.8529Z" fill="#00FF99"/>
<path d="M63.1075 80.0389V95.4309H35.4018V109.284H21.5489L21.5489 50.7939H35.4018L35.4018 66.186H50.7939V80.0389H63.1075Z" fill="#00FF99"/>
<path d="M13.8529 72.3428V84.6565H0L0 72.3428H13.8529Z" fill="#00FF99"/>
<path d="M78.5002 90.8133H93.8922V118.519H107.745V132.372H49.2552L49.2552 118.519H64.6473V103.127H78.5002V90.8133Z" fill="#00FF99"/>
<path d="M70.8041 140.068H83.1178V153.921H70.8041V140.068Z" fill="#00FF99"/>
<path d="M92.3524 76.9604V61.5683L120.058 61.5683V47.7155H133.911V106.205H120.058L120.058 90.8133H104.666V76.9604H92.3524Z" fill="#00FF99"/>
<path d="M141.607 84.6564V72.3428H155.46V84.6564H141.607Z" fill="#00FF99"/>
</svg>
